<?xml version="1.0" standalone="no"?>
<!DOCTYPE svg PUBLIC "-//W3C//DTD SVG 20010904//EN"
 "http://www.w3.org/TR/2001/REC-SVG-20010904/DTD/svg10.dtd">
<svg version="1.0" xmlns="http://www.w3.org/2000/svg"
 width="1920.000000pt" height="1080.000000pt" viewBox="0 0 1920.000000 1080.000000"
 preserveAspectRatio="xMidYMid meet">

<g transform="translate(0.000000,1080.000000) scale(0.100000,-0.100000)"
fill="#000000" stroke="none">
<path d="M13110 10506 c0 -10 -13 -17 -37 -21 -72 -13 -123 -37 -129 -61 -3
-13 -3 -27 0 -33 4 -5 -7 -19 -24 -31 -16 -12 -30 -27 -30 -34 0 -7 -11 -23
-25 -36 -19 -18 -25 -33 -23 -54 3 -26 -1 -31 -25 -36 -28 -5 -38 -18 -76 -94
-10 -21 -29 -43 -42 -50 -15 -7 -24 -21 -24 -35 0 -16 -9 -27 -25 -33 -25 -9
-100 -83 -100 -98 0 -4 -21 -31 -46 -59 -37 -42 -44 -54 -34 -66 16 -19 4 -35
-25 -35 -17 0 -33 -13 -55 -45 -17 -25 -39 -53 -49 -63 -10 -9 -35 -41 -55
-71 -34 -50 -89 -109 -119 -128 -17 -11 -47 -59 -47 -75 0 -7 -16 -30 -35 -51
-38 -41 -43 -64 -20 -81 14 -10 14 -13 1 -31 -16 -20 -16 -20 -22 3 -8 27 -16
28 -37 4 -21 -23 -22 -42 -2 -42 8 0 15 -6 15 -14 0 -14 -29 -26 -67 -26 -13
0 -31 -13 -43 -30 -12 -16 -27 -30 -34 -30 -13 0 -86 -81 -86 -95 0 -24 -147
-173 -188 -191 -25 -11 -32 -19 -27 -34 4 -13 -3 -25 -25 -41 -16 -13 -30 -28
-30 -34 0 -6 -16 -30 -36 -53 -23 -27 -34 -50 -32 -64 2 -17 -1 -22 -15 -20
-17 3 -45 -23 -110 -101 -18 -21 -48 -55 -67 -75 -19 -21 -48 -54 -64 -74 -17
-20 -39 -42 -51 -48 -12 -7 -30 -30 -39 -51 -10 -22 -28 -44 -41 -49 -12 -5
-25 -20 -29 -35 -4 -14 -17 -31 -30 -37 -13 -5 -32 -26 -42 -44 -10 -19 -23
-34 -29 -34 -5 0 -23 -21 -39 -48 -32 -51 -65 -83 -108 -107 -16 -9 -28 -24
-28 -36 0 -11 -6 -22 -14 -25 -8 -3 -18 -18 -21 -34 -4 -20 -17 -32 -46 -46
-30 -13 -39 -22 -36 -36 4 -12 0 -18 -11 -18 -18 0 -118 -103 -127 -130 -3 -9
-16 -22 -29 -28 -13 -6 -27 -20 -31 -32 -10 -31 -73 -88 -123 -110 -34 -16
-46 -29 -63 -66 -11 -26 -37 -65 -59 -87 -22 -21 -40 -48 -40 -59 0 -11 -8
-22 -20 -25 -10 -3 -22 -13 -25 -22 -3 -9 -35 -48 -71 -86 -108 -114 -217
-231 -254 -275 -19 -22 -60 -66 -91 -98 -31 -31 -61 -67 -68 -79 -6 -13 -18
-23 -26 -23 -7 0 -41 -35 -75 -77 -35 -43 -73 -83 -85 -90 -12 -7 -25 -22 -28
-33 -3 -12 -15 -24 -27 -27 -11 -3 -28 -20 -37 -37 -26 -51 -65 -86 -95 -86
-31 0 -34 7 -15 35 7 11 19 44 26 72 11 45 11 57 -3 84 -21 42 -20 48 9 59 20
8 25 16 25 44 0 49 9 66 34 66 48 0 80 78 79 193 0 27 10 36 22 17 13 -20 26
-8 53 48 15 31 31 60 36 64 5 3 13 36 17 72 5 36 17 83 29 105 11 22 20 48 20
58 0 10 9 32 20 48 11 17 20 39 20 51 0 22 38 64 58 64 7 0 12 13 12 29 0 15
11 49 25 75 14 26 25 60 25 75 0 24 5 30 30 35 25 4 30 10 30 34 0 48 22 82
53 82 32 0 51 33 36 62 -11 20 9 57 48 95 14 13 23 34 23 51 0 21 8 35 25 46
14 9 25 23 25 30 0 8 14 28 30 46 17 18 30 42 30 55 0 35 28 93 50 105 11 6
20 17 20 24 0 8 8 16 19 19 14 3 17 11 14 28 -3 17 3 32 21 48 14 14 26 29 26
36 0 6 22 33 50 60 27 26 52 61 55 76 4 15 13 33 21 40 8 6 14 20 14 31 0 10
11 30 25 44 14 14 25 28 25 33 0 4 14 20 30 36 17 16 28 35 26 41 -3 7 6 22
20 35 13 12 24 31 24 41 0 10 7 18 15 18 9 0 15 9 15 24 0 14 4 28 10 31 5 3
19 28 31 55 11 26 32 58 45 71 13 12 24 27 24 33 0 6 9 17 20 24 11 7 20 17
20 22 0 6 16 33 35 61 19 28 35 57 35 64 0 7 20 33 44 57 47 47 70 83 61 97
-3 5 4 12 15 16 14 4 20 15 20 36 0 16 4 29 9 29 5 0 29 36 52 80 24 44 50 82
59 85 23 7 43 134 23 142 -20 8 -68 55 -82 80 -8 17 -24 24 -61 29 -27 4 -51
12 -54 20 -7 17 -38 18 -54 2 -13 -13 -22 -8 -26 14 -1 7 -8 23 -15 36 -10 19
-18 22 -43 17 -27 -6 -29 -5 -24 13 5 15 1 24 -13 31 -27 15 -29 15 -58 -16
l-25 -28 -15 23 c-9 12 -24 22 -34 22 -10 0 -20 4 -23 9 -3 5 -22 12 -41 15
-19 4 -35 10 -35 15 0 4 -6 15 -13 26 -13 17 -15 17 -45 -1 -18 -10 -32 -21
-32 -25 0 -10 -59 -29 -90 -29 -21 0 -42 -15 -84 -61 -31 -33 -56 -66 -55 -72
4 -30 -2 -48 -18 -54 -25 -10 -52 -44 -53 -66 0 -10 -20 -37 -45 -61 -25 -25
-45 -49 -45 -55 0 -6 -13 -17 -29 -26 -16 -8 -39 -31 -52 -51 -12 -20 -51 -63
-85 -97 -35 -33 -66 -69 -70 -79 -3 -10 -11 -18 -17 -18 -6 0 -20 -11 -32 -25
-12 -16 -34 -28 -57 -32 -35 -5 -39 -3 -58 30 -20 33 -58 64 -119 95 -14 7
-33 17 -41 21 -8 4 -22 22 -30 40 -12 29 -18 32 -43 27 -24 -5 -37 2 -80 39
-38 33 -58 44 -73 40 -13 -3 -27 2 -35 11 -9 11 -22 14 -41 10 -22 -4 -31 0
-44 19 -9 14 -26 25 -38 25 -13 0 -51 9 -86 21 -34 11 -79 20 -99 19 -79 -4
-109 1 -131 20 -28 25 -33 25 -54 1 -14 -15 -29 -18 -84 -17 -63 3 -69 1 -99
-30 -33 -32 -103 -74 -125 -74 -6 0 -16 -7 -22 -15 -6 -9 -28 -16 -51 -16 -48
-2 -105 -26 -105 -45 0 -7 -13 -20 -29 -29 -16 -8 -35 -20 -43 -27 -24 -24
-102 -78 -111 -78 -5 0 -27 -16 -48 -35 -22 -19 -46 -35 -54 -35 -8 0 -15 -5
-15 -10 0 -6 -8 -14 -17 -17 -10 -4 -48 -36 -85 -71 -63 -62 -123 -100 -130
-83 -5 13 -48 24 -48 12 0 -5 9 -13 20 -16 11 -3 20 -15 20 -26 0 -12 -7 -19
-20 -19 -12 0 -20 7 -20 16 0 31 -26 42 -103 45 -57 2 -80 -1 -94 -12 -17 -15
-103 -59 -114 -59 -10 0 -99 -90 -99 -99 0 -5 7 -11 15 -15 22 -8 7 -35 -15
-29 -19 5 -65 -34 -210 -178 -21 -20 -57 -50 -81 -65 -56 -37 -78 -59 -89 -90
-5 -13 -22 -29 -37 -35 -37 -14 -153 -117 -153 -137 0 -22 -29 -52 -45 -46 -7
3 -16 -3 -19 -14 -4 -11 -16 -22 -27 -25 -15 -4 -19 -11 -15 -25 5 -16 -2 -24
-39 -42 -35 -17 -47 -29 -52 -51 -3 -18 -21 -42 -44 -60 -22 -17 -39 -36 -39
-42 -1 -13 -66 -87 -78 -87 -4 0 -20 -17 -37 -37 -28 -34 -53 -60 -97 -100
-10 -9 -18 -23 -18 -30 0 -22 -53 -83 -73 -83 -10 0 -31 -16 -48 -35 -17 -19
-39 -37 -49 -40 -12 -4 -24 -22 -30 -43 -14 -48 -30 -69 -59 -74 -15 -2 -31
-16 -42 -37 -10 -18 -27 -40 -38 -48 -12 -8 -21 -20 -21 -27 0 -17 -43 -56
-61 -56 -9 0 -25 -14 -38 -31 -18 -25 -20 -33 -10 -45 10 -13 10 -17 -2 -25
-8 -5 -21 -9 -29 -9 -8 0 -71 -59 -140 -132 -69 -72 -149 -155 -177 -185 -29
-30 -53 -58 -53 -63 0 -6 -7 -10 -15 -10 -8 0 -15 -8 -15 -19 0 -10 -20 -35
-44 -55 -24 -20 -54 -56 -66 -82 -13 -25 -30 -48 -39 -51 -9 -4 -36 -26 -59
-50 -24 -23 -48 -43 -53 -43 -5 0 -9 -9 -9 -20 0 -11 -4 -20 -8 -20 -4 0 -31
-22 -59 -49 -28 -27 -60 -52 -71 -55 -11 -4 -31 -23 -45 -44 -13 -20 -65 -78
-115 -128 -49 -50 -92 -100 -94 -110 -2 -11 -13 -20 -26 -22 -13 -2 -33 -12
-45 -23 -64 -56 -105 -89 -114 -89 -6 0 -18 -9 -28 -20 -10 -11 -26 -20 -35
-20 -10 0 -36 -18 -58 -40 -22 -22 -45 -40 -52 -40 -7 0 -29 -13 -49 -28 -20
-16 -52 -37 -71 -48 -19 -10 -47 -29 -62 -43 -15 -13 -38 -25 -52 -26 -13 -2
-37 -6 -53 -9 -50 -10 -85 39 -58 81 9 13 15 32 14 41 -2 16 15 57 46 112 8
14 15 36 15 49 0 14 9 35 21 47 17 18 19 26 9 43 -9 18 -7 22 15 31 16 6 25
17 25 32 0 31 41 116 74 153 25 28 31 48 27 88 -3 21 30 70 76 114 21 20 33
41 33 57 0 14 9 35 20 46 11 11 20 25 20 31 0 6 11 24 25 41 14 16 25 37 25
46 0 9 14 46 31 82 18 36 35 72 39 80 4 8 17 16 29 18 11 2 22 6 22 10 1 4 3
18 4 31 1 13 12 31 23 40 11 9 32 41 46 72 14 31 35 64 46 74 11 10 20 29 20
43 0 14 10 32 25 44 14 11 25 27 25 37 0 23 26 75 45 91 9 7 13 21 10 30 -8
24 49 80 81 80 15 0 24 5 22 13 -3 18 12 57 22 57 12 0 40 54 40 77 0 10 14
35 31 56 19 23 29 44 25 54 -4 9 1 24 10 35 10 10 22 28 28 41 7 12 28 30 49
40 27 13 37 23 37 41 0 12 13 41 29 63 16 22 41 66 55 97 15 32 32 56 41 56 8
0 15 3 15 8 0 4 13 21 30 38 16 18 32 44 36 58 3 15 14 32 23 39 17 12 71 102
71 118 0 14 69 117 84 126 16 9 88 108 99 136 3 9 12 17 18 17 7 0 9 9 5 25
-4 14 -2 25 3 25 5 0 13 9 16 20 3 11 12 20 18 20 7 0 25 7 40 15 15 8 34 12
42 8 8 -3 15 0 15 6 0 6 -6 11 -12 12 -7 0 -4 4 8 9 22 9 34 50 34 118 0 17 5
32 11 32 17 0 51 88 43 113 -5 12 -6 27 -5 32 18 53 18 91 0 113 -10 14 -19
34 -19 46 0 41 -44 100 -90 122 -25 12 -66 46 -92 77 -38 44 -52 54 -71 50
-19 -4 -31 4 -57 35 -26 33 -40 41 -77 47 -52 8 -119 39 -127 61 -3 8 -16 14
-29 14 -13 0 -28 5 -34 11 -13 13 -33 4 -33 -17 0 -8 -9 -14 -21 -14 -16 0
-19 4 -14 20 3 10 1 29 -5 41 -9 16 -18 20 -40 16 -16 -4 -35 0 -46 8 -11 8
-31 15 -47 15 -20 0 -30 7 -39 28 -7 15 -13 29 -15 31 -1 2 -13 -3 -25 -11
-36 -23 -75 -30 -183 -34 -55 -1 -116 -4 -135 -7 -19 -2 -54 -5 -77 -6 -23 0
-48 -7 -55 -14 -7 -7 -48 -18 -90 -25 -97 -15 -198 -44 -198 -57 0 -6 -33 -10
-78 -10 -55 0 -89 -6 -117 -20 -25 -11 -75 -21 -131 -25 -89 -7 -118 -17 -161
-54 -12 -10 -43 -21 -70 -23 -67 -8 -85 -26 -80 -81 3 -36 0 -49 -20 -70 -22
-24 -32 -42 -61 -114 -7 -16 -16 -28 -22 -28 -5 0 -10 -11 -10 -24 0 -13 -9
-35 -20 -49 -11 -14 -20 -34 -20 -45 0 -11 -7 -22 -15 -26 -8 -3 -12 -12 -9
-20 4 -11 -2 -19 -19 -25 -18 -7 -26 -19 -30 -48 -4 -24 -18 -49 -36 -67 -16
-15 -32 -42 -35 -60 -4 -18 -20 -45 -36 -61 -17 -16 -30 -39 -30 -51 0 -13 -5
-26 -10 -29 -6 -3 -19 -26 -30 -49 -10 -24 -36 -58 -56 -75 -21 -19 -34 -38
-30 -46 8 -21 -14 -75 -30 -75 -8 0 -14 -6 -14 -12 0 -7 -12 -33 -25 -58 -13
-25 -33 -64 -45 -87 -11 -23 -24 -45 -30 -48 -5 -3 -10 -15 -10 -25 0 -11 -17
-36 -37 -57 -21 -20 -47 -58 -59 -84 -12 -25 -27 -50 -34 -54 -7 -4 -19 -22
-27 -39 -20 -44 -39 -76 -52 -89 -6 -6 -11 -22 -11 -34 0 -25 -37 -83 -53 -83
-12 0 -67 -56 -67 -69 0 -13 -85 -138 -111 -163 -10 -10 -21 -33 -24 -52 -5
-22 -14 -36 -26 -39 -14 -4 -19 -14 -19 -40 0 -30 -4 -36 -38 -49 -31 -12 -43
-25 -65 -71 -18 -38 -36 -61 -57 -72 -20 -10 -38 -32 -50 -60 -10 -24 -28 -50
-39 -57 -12 -7 -21 -18 -21 -25 0 -7 -9 -17 -20 -23 -11 -6 -20 -18 -20 -28 0
-9 -10 -28 -23 -42 -13 -14 -37 -50 -53 -79 -16 -30 -38 -59 -49 -65 -11 -6
-29 -22 -40 -35 -11 -13 -32 -39 -47 -57 -16 -17 -28 -36 -28 -42 0 -6 -18
-26 -40 -45 -22 -19 -40 -39 -40 -46 0 -6 -18 -31 -40 -55 -22 -24 -40 -47
-40 -52 0 -5 -9 -15 -20 -22 -11 -7 -20 -20 -20 -30 -1 -22 -17 -42 -57 -71
-18 -12 -36 -33 -39 -47 -3 -13 -12 -24 -19 -24 -14 0 -108 -104 -140 -155
-10 -16 -39 -52 -64 -80 -53 -57 -91 -110 -91 -124 0 -5 -8 -16 -18 -23 -11
-7 -24 -23 -31 -35 -6 -13 -17 -23 -24 -23 -20 0 -67 -49 -67 -71 0 -10 -9
-27 -20 -36 -11 -10 -20 -23 -20 -31 0 -7 -11 -24 -25 -38 -14 -14 -31 -37
-39 -52 -8 -15 -22 -37 -33 -49 -10 -12 -29 -36 -43 -53 -14 -17 -40 -40 -57
-51 -18 -11 -33 -25 -33 -31 0 -6 -15 -31 -33 -57 -19 -25 -37 -54 -40 -64 -4
-9 -17 -22 -29 -28 -13 -5 -57 -55 -98 -110 -41 -55 -90 -111 -107 -125 -18
-14 -33 -30 -33 -36 0 -10 -41 -63 -83 -105 -12 -13 -31 -23 -42 -23 -11 0
-35 -16 -54 -35 -19 -19 -42 -35 -52 -35 -12 0 -19 -7 -19 -20 0 -26 17 -25
40 2 10 13 22 20 26 15 4 -4 3 -12 -3 -18 -10 -10 -5 -31 23 -109 3 -9 18 -21
34 -28 20 -9 30 -22 34 -47 4 -21 14 -36 26 -40 11 -4 23 -17 26 -31 7 -27 22
-30 49 -10 25 18 45 10 45 -20 0 -15 6 -24 15 -24 8 0 36 -13 62 -29 29 -17
70 -31 103 -35 30 -4 63 -15 73 -23 13 -13 44 -17 137 -19 116 -2 158 -12 144
-35 -3 -5 2 -9 10 -9 9 0 16 4 16 9 0 9 84 71 98 71 4 1 16 15 27 32 15 23 34
36 75 48 84 26 186 139 201 225 2 10 14 22 25 25 28 7 94 66 94 83 0 8 9 26
20 40 11 14 20 29 20 35 0 5 23 28 50 51 28 23 50 49 50 57 0 8 10 18 23 23
22 9 43 43 67 107 9 26 20 34 56 44 45 13 49 19 45 71 -2 22 4 28 38 39 37 12
39 14 34 46 -4 25 -2 35 11 40 9 3 16 14 16 24 0 25 30 34 45 14 17 -24 35 -8
35 32 0 19 5 34 10 34 6 0 15 11 20 25 5 14 17 28 25 31 8 4 15 18 15 34 0 17
11 39 29 56 28 29 47 74 30 74 -5 0 -9 7 -9 16 0 12 5 14 18 8 24 -11 76 -7
81 7 2 6 16 24 32 40 16 16 29 36 29 43 0 8 6 19 14 25 8 7 17 28 21 47 4 23
19 47 42 67 45 39 55 67 44 117 -8 37 -7 40 13 40 11 0 28 -4 36 -10 20 -12
32 8 18 34 -8 15 -6 22 12 36 17 13 21 23 17 42 -5 17 0 31 19 51 14 15 28 27
32 27 4 0 22 14 40 30 30 26 39 29 79 23 43 -6 44 -5 38 20 -5 20 -2 28 15 37
14 8 19 17 15 30 -7 21 10 61 31 73 8 4 14 21 14 36 0 32 22 56 45 47 21 -8
19 -32 -5 -56 l-20 -20 30 0 c24 0 30 4 30 21 0 12 6 27 14 33 19 15 76 124
76 146 0 9 11 29 25 44 19 21 25 38 25 72 0 65 34 122 66 110 21 -8 59 30 68
69 4 17 16 49 27 73 60 131 60 132 82 129 16 -1 23 4 25 21 2 14 10 22 23 22
12 0 24 11 31 28 7 15 27 43 46 62 27 28 33 42 30 68 -3 25 0 32 13 32 24 0
39 22 32 48 -3 13 -1 22 5 22 19 0 81 60 81 78 6 112 7 116 34 127 36 15 95
86 95 115 1 14 6 54 12 89 8 51 16 70 40 91 17 15 30 34 30 43 0 10 7 17 15
17 19 0 55 35 55 54 0 8 32 46 71 85 66 66 78 91 43 91 -20 0 -17 17 6 37 11
10 20 23 20 30 0 7 5 13 10 13 6 0 10 12 10 28 1 17 13 39 35 62 21 20 35 44
35 59 0 29 38 111 51 111 5 0 18 20 29 44 11 25 24 47 29 51 33 20 55 128 29
138 -8 3 -1 9 15 16 15 6 32 22 37 36 12 32 18 34 112 38 56 2 83 8 96 21 11
9 35 18 53 19 19 1 41 7 49 12 8 5 38 10 65 11 28 1 65 5 82 9 31 7 33 5 33
-19 0 -35 -3 -41 -17 -38 -18 4 -26 -17 -13 -33 12 -15 5 -55 -11 -55 -5 0 -9
-6 -9 -13 0 -7 -13 -31 -30 -53 -16 -21 -30 -45 -30 -52 0 -22 -40 -93 -55
-98 -17 -7 -95 -139 -95 -161 0 -8 -9 -17 -20 -20 -24 -6 -50 -51 -50 -85 0
-14 -19 -42 -50 -72 -32 -32 -50 -58 -50 -73 0 -16 -8 -27 -25 -33 -15 -6 -25
-17 -25 -30 0 -11 -7 -23 -15 -26 -8 -4 -15 -14 -15 -24 0 -10 -7 -23 -15 -30
-8 -7 -15 -21 -15 -31 0 -10 -14 -34 -31 -54 -17 -19 -26 -35 -20 -35 19 0 12
-16 -14 -30 -14 -7 -25 -21 -25 -30 0 -9 -9 -25 -20 -35 -11 -10 -20 -25 -20
-33 0 -8 -18 -31 -39 -51 -39 -36 -81 -110 -81 -142 0 -9 -8 -27 -19 -40 -10
-13 -22 -34 -26 -47 -4 -13 -24 -58 -45 -100 -21 -43 -45 -93 -54 -112 -43
-94 -68 -124 -98 -114 -13 4 -18 -4 -23 -41 -5 -28 -15 -52 -29 -63 -25 -20
-63 -102 -72 -154 -3 -21 -12 -42 -20 -49 -8 -6 -14 -20 -14 -30 0 -11 -7 -19
-17 -19 -22 -1 -63 -78 -63 -120 0 -24 -7 -35 -30 -48 -17 -9 -33 -28 -37 -42
-12 -47 -43 -97 -68 -108 -14 -6 -25 -16 -25 -22 0 -5 -16 -17 -36 -25 l-37
-15 6 -63 c5 -54 3 -66 -17 -92 -13 -16 -26 -49 -29 -72 -4 -23 -23 -77 -42
-119 -21 -45 -35 -90 -33 -108 1 -17 -6 -43 -16 -58 -10 -15 -15 -31 -13 -36
8 -12 -4 -26 -36 -40 -31 -13 -51 -55 -44 -92 3 -14 -1 -34 -9 -44 -19 -26
-19 -28 16 -71 17 -21 30 -45 30 -54 1 -21 74 -101 93 -101 20 0 33 -18 48
-68 8 -29 20 -47 35 -52 12 -5 26 -22 32 -39 7 -19 22 -35 39 -42 15 -6 44
-22 63 -37 19 -15 44 -27 55 -27 12 0 21 -8 23 -20 3 -22 70 -65 101 -65 11 0
22 -4 25 -9 3 -5 18 -12 32 -15 15 -4 60 -23 99 -42 40 -19 77 -34 83 -34 5 0
15 -6 21 -14 6 -8 33 -17 59 -21 26 -4 52 -11 57 -15 15 -13 158 -30 170 -21
5 5 45 9 89 9 43 1 83 5 90 10 6 5 34 6 63 3 39 -6 54 -4 57 6 3 7 20 13 37
13 19 0 46 11 66 26 18 14 37 23 42 19 5 -3 12 -1 15 4 4 5 2 12 -4 16 -16 10
-2 25 23 25 23 0 122 32 133 43 3 3 17 1 30 -5 20 -10 28 -8 49 12 14 13 27
31 31 42 3 11 15 18 29 18 13 0 27 5 30 10 3 6 14 10 24 10 10 0 24 7 31 15 7
8 20 15 30 15 10 0 23 6 30 14 6 8 21 16 33 18 14 2 22 10 22 23 0 37 43 92
85 109 31 12 40 21 40 40 0 17 7 26 24 30 14 3 34 20 46 36 12 17 26 30 33 30
6 0 20 8 31 19 12 10 35 23 51 28 22 7 31 17 33 36 2 14 15 33 30 43 34 22 50
42 64 77 8 22 15 27 31 23 15 -4 37 12 89 65 37 38 68 76 68 83 0 18 19 33 52
41 25 6 27 4 38 -37 6 -23 15 -51 21 -61 7 -13 7 -23 -2 -33 -9 -11 -9 -21 -1
-39 6 -14 9 -32 6 -40 -4 -9 1 -24 10 -34 9 -10 19 -29 21 -41 3 -13 9 -28 15
-34 5 -5 10 -22 10 -37 0 -21 7 -29 30 -38 22 -7 36 -22 49 -54 10 -24 31 -56
45 -72 14 -15 26 -34 26 -41 0 -17 46 -48 59 -40 5 3 23 -6 40 -21 71 -66 101
-85 196 -131 22 -11 55 -34 74 -51 21 -20 42 -31 53 -28 30 8 98 -12 135 -40
32 -25 37 -26 66 -14 35 14 106 15 140 2 13 -5 72 -9 132 -10 l110 -1 40 35
c22 19 48 42 58 50 12 11 28 14 47 10 23 -5 31 -1 49 24 16 22 31 31 58 33 37
3 48 14 58 61 3 15 10 27 16 27 21 0 136 81 149 105 7 13 26 29 42 36 16 6 37
23 48 36 11 14 26 23 34 20 20 -8 76 48 76 76 0 15 9 31 23 40 13 8 34 31 47
51 14 20 33 39 43 42 9 3 24 17 32 32 8 15 30 38 49 52 20 14 38 32 41 41 3 9
14 19 24 22 10 2 25 17 32 33 8 16 25 34 39 41 17 8 24 19 22 33 -2 13 2 20
12 20 9 0 16 -7 16 -15 0 -17 16 -20 25 -4 4 5 17 14 30 19 23 9 27 19 37 119
2 19 11 27 36 33 20 5 32 15 32 26 1 23 45 76 58 68 13 -8 27 11 42 57 6 21
17 36 23 34 20 -6 19 -45 -1 -74 -11 -15 -23 -49 -27 -75 -3 -26 -10 -50 -16
-53 -5 -4 -9 -23 -8 -43 0 -20 -9 -95 -21 -167 -30 -178 -23 -317 17 -381 16
-24 36 -46 46 -49 10 -4 25 -24 33 -45 9 -21 22 -41 29 -44 18 -6 36 -73 29
-102 -6 -22 -4 -23 33 -17 75 13 82 10 97 -40 6 -18 102 -67 132 -67 9 0 27
-9 41 -20 14 -11 40 -20 57 -20 20 0 43 -11 66 -30 19 -16 44 -30 54 -30 11 0
36 -11 55 -24 28 -20 49 -25 96 -25 33 0 92 -1 132 -1 40 -1 98 4 130 11 32 6
72 13 88 14 42 4 164 42 181 56 8 6 14 17 14 24 0 21 36 45 68 45 19 0 32 5
32 13 0 13 73 77 88 77 5 0 17 9 28 21 10 12 31 27 46 35 16 8 28 20 28 27 0
7 8 17 19 24 12 8 17 19 14 35 -4 21 2 27 39 43 24 10 58 19 77 19 30 1 36 5
46 36 8 24 18 34 29 32 9 -2 27 10 40 25 20 23 22 29 10 36 -16 9 -19 43 -4
52 6 4 8 14 6 23 -3 10 -2 22 2 27 6 10 62 36 104 49 23 7 51 70 43 96 -12 37
4 78 38 95 21 10 34 12 41 5 7 -7 6 -10 -2 -10 -17 0 -15 -39 2 -46 8 -3 12
-12 9 -20 -8 -21 14 -17 30 5 9 14 13 46 11 102 -2 96 1 109 28 109 10 0 35
16 55 35 20 19 40 35 44 35 12 0 19 -16 12 -24 -11 -10 -15 -56 -5 -56 16 0
32 24 32 50 1 14 14 41 30 60 17 19 30 44 30 57 0 12 5 25 10 28 6 3 10 19 10
34 0 31 16 51 42 51 19 0 24 -20 8 -36 -15 -15 5 -37 29 -29 25 7 27 27 6 45
-23 19 -20 35 17 100 4 8 12 25 18 38 12 27 25 28 47 2 23 -26 25 -25 46 10
15 25 21 28 36 18 11 -6 26 -8 37 -3 17 7 16 9 -8 18 -29 11 -38 27 -15 27 8
0 24 11 37 25 l23 25 -21 0 c-23 0 -32 33 -12 45 6 3 10 14 10 24 0 12 13 22
40 30 22 7 44 10 49 7 5 -3 14 16 21 42 6 26 19 62 27 80 13 27 20 32 39 28
16 -4 28 1 43 19 11 15 21 31 24 38 2 8 14 6 39 -6 l37 -17 32 30 c31 28 32
31 15 43 -14 10 -15 17 -6 41 9 23 14 27 35 22 17 -4 25 -2 25 7 0 7 14 26 30
42 17 16 30 35 30 42 0 7 23 38 50 68 29 32 50 65 50 78 0 34 27 66 70 83 27
11 42 25 49 45 5 16 21 33 34 38 13 5 27 17 30 25 4 9 16 16 27 16 28 0 36 26
16 49 -24 26 -20 61 11 93 18 19 37 28 59 28 36 0 49 12 59 58 5 23 14 34 31
38 13 3 34 20 45 36 18 24 27 29 49 24 22 -4 29 -1 33 14 3 11 13 20 22 20 12
0 15 5 10 20 -7 23 27 73 53 76 9 2 22 11 30 21 11 15 10 20 -5 31 -17 13 -17
14 2 28 28 21 47 14 70 -28 18 -35 18 -38 2 -56 -21 -23 -22 -50 -1 -73 11
-12 14 -25 9 -36 -5 -10 -7 -26 -6 -35 2 -12 -5 -18 -18 -18 -17 0 -20 -6 -19
-35 1 -19 5 -32 10 -29 17 10 7 -24 -14 -51 -12 -16 -23 -36 -23 -44 -1 -9 -2
-25 -3 -36 -1 -11 -15 -35 -31 -52 -38 -42 -42 -55 -52 -153 -17 -176 -44
-309 -67 -332 -15 -15 -16 -54 -2 -63 6 -4 0 -15 -15 -27 -14 -10 -25 -25 -25
-31 0 -7 -7 -25 -15 -41 -8 -15 -13 -32 -10 -36 3 -4 -5 -34 -16 -66 -12 -33
-21 -70 -20 -82 1 -16 -6 -26 -19 -29 -14 -4 -19 -11 -15 -23 7 -23 -19 -135
-40 -166 -12 -19 -13 -29 -4 -45 9 -17 17 -20 45 -14 40 7 44 -6 18 -61 -19
-40 -37 -45 -28 -9 8 31 1 31 -53 0 -37 -22 -43 -30 -43 -59 0 -39 -19 -59
-45 -49 -15 5 -17 3 -11 -13 11 -25 7 -126 -4 -138 -5 -5 -5 -17 1 -28 8 -15
5 -28 -10 -54 -32 -54 -27 -75 9 -36 17 18 30 40 30 49 0 9 11 26 25 39 15 14
25 34 25 52 0 31 23 71 33 55 7 -12 -12 -82 -28 -103 -7 -8 -15 -41 -19 -74
-3 -32 -11 -67 -17 -78 -6 -10 -14 -44 -19 -75 -6 -37 -18 -65 -34 -82 -14
-14 -27 -39 -31 -56 -4 -16 -10 -39 -15 -50 -5 -11 -11 -32 -14 -47 -7 -32
-26 -38 -26 -9 0 24 -16 36 -23 19 -4 -10 -7 -10 -17 -1 -11 10 -10 14 3 19 9
3 17 14 17 24 0 10 7 23 15 30 8 7 19 31 25 54 6 22 18 55 26 73 18 35 12 83
-10 83 -9 0 -16 -17 -21 -47 -4 -27 -14 -56 -22 -65 -9 -10 -13 -25 -9 -34 4
-10 -1 -25 -13 -38 -31 -34 -59 -97 -67 -151 -4 -27 -20 -74 -35 -103 -16 -29
-29 -65 -29 -80 0 -15 -7 -36 -15 -46 -8 -11 -15 -26 -15 -33 0 -8 -9 -33 -20
-55 -11 -23 -20 -50 -20 -59 0 -10 -4 -21 -10 -24 -5 -3 -10 -16 -10 -28 0
-12 -6 -33 -13 -47 -7 -14 -14 -53 -15 -87 -2 -74 -31 -137 -73 -159 -34 -17
-37 -39 -8 -54 27 -15 49 -6 49 20 0 26 39 80 58 80 10 0 12 -6 7 -22 -3 -13
-8 -30 -9 -38 -7 -36 -73 -177 -87 -185 -5 -4 -9 -16 -9 -27 0 -12 -8 -31 -19
-42 -10 -12 -23 -34 -28 -50 -5 -17 -15 -32 -21 -34 -18 -6 -14 29 8 71 34 64
22 92 -25 56 -17 -14 -25 -28 -22 -40 3 -11 -2 -19 -14 -22 -17 -5 -19 -11
-13 -45 6 -36 4 -41 -21 -53 -27 -14 -39 -27 -48 -60 -5 -15 -98 -24 -357 -33
-19 -1 -41 -5 -49 -10 -40 -25 -170 -43 -360 -50 -74 -3 -139 -10 -144 -15
-17 -17 -219 -14 -243 3 -22 17 -16 20 51 31 47 8 65 21 65 45 0 10 7 23 16
31 10 8 13 21 9 36 -6 27 21 69 58 87 12 7 24 20 26 31 4 25 19 35 54 35 21 0
27 5 27 22 0 12 23 47 50 79 28 32 50 62 50 68 0 6 23 25 50 43 28 18 50 38
50 45 0 6 9 15 20 18 11 3 20 12 20 20 0 8 8 16 18 19 24 8 64 73 58 94 -6 19
20 54 47 65 11 4 17 17 17 36 0 22 9 37 36 59 26 22 34 35 30 49 -3 10 -1 34
4 53 5 19 6 38 2 42 -13 13 -111 -10 -139 -32 -14 -11 -34 -20 -44 -20 -11 0
-19 -4 -19 -9 0 -5 -20 -14 -44 -20 -24 -6 -49 -17 -56 -26 -7 -8 -18 -15 -26
-15 -7 0 -29 -14 -48 -30 -43 -38 -60 -21 -21 20 39 40 29 76 -21 82 -31 4
-37 1 -45 -21 -5 -14 -14 -33 -19 -41 -29 -43 -34 -61 -22 -81 15 -23 -2 -54
-40 -73 -15 -8 -23 -21 -23 -36 0 -20 -10 -30 -51 -50 -29 -14 -61 -33 -71
-43 -11 -9 -25 -17 -31 -17 -6 0 -15 -6 -19 -13 -4 -7 -25 -23 -45 -36 -21
-12 -38 -29 -38 -36 0 -18 -37 -38 -55 -31 -8 3 -15 20 -17 38 -2 25 -8 34
-24 36 -17 2 -25 -6 -38 -37 -9 -25 -22 -41 -32 -41 -13 0 -15 -7 -10 -32 4
-24 3 -29 -4 -18 -5 8 -10 13 -11 10 0 -3 -3 -14 -6 -25 -2 -11 -5 -30 -6 -43
-2 -25 -30 -47 -51 -39 -7 3 -21 -8 -30 -25 -14 -23 -23 -28 -41 -24 -17 4
-33 -2 -54 -20 -38 -31 -39 -44 -6 -44 28 0 30 -7 11 -33 -16 -20 -51 -24 -43
-4 3 8 2 20 -3 27 -9 15 -30 5 -30 -15 0 -7 -22 -30 -49 -50 -38 -28 -55 -34
-75 -29 -29 7 -33 -4 -15 -37 8 -16 5 -32 -12 -73 -12 -29 -27 -53 -33 -52
-10 0 -55 -8 -176 -35 -25 -5 -93 -11 -152 -14 -59 -2 -115 -8 -125 -13 -10
-5 -60 -12 -112 -16 -52 -3 -100 -11 -107 -17 -8 -6 -47 -9 -96 -7 -46 1 -89
-1 -96 -6 -16 -9 -126 -24 -287 -36 -66 -5 -131 -12 -145 -15 -39 -9 -259 -27
-314 -25 -26 0 -54 -4 -62 -11 -8 -6 -25 -8 -39 -5 -14 4 -35 1 -48 -6 -12 -6
-76 -15 -142 -19 -149 -10 -216 -15 -280 -23 -117 -13 -181 -20 -197 -21 -9 0
-20 -3 -24 -8 -4 -4 -20 -7 -35 -7 -15 0 -31 -5 -34 -11 -5 -7 -42 -9 -106 -6
-55 2 -102 1 -104 -4 -3 -4 -38 -13 -78 -19 -39 -7 -103 -21 -142 -30 -38 -10
-94 -16 -123 -15 -28 2 -54 -1 -57 -5 -3 -5 -31 -12 -63 -16 -31 -3 -66 -11
-77 -17 -11 -6 -47 -12 -80 -14 -33 -2 -73 -4 -90 -6 -27 -2 -30 1 -27 26 2
21 -1 27 -16 27 -11 0 -25 -7 -32 -15 -10 -12 -25 -14 -62 -10 -40 5 -54 2
-75 -14 -19 -16 -30 -18 -44 -11 -22 12 -133 -3 -155 -21 -7 -6 -55 -17 -105
-25 -51 -7 -97 -18 -103 -24 -5 -5 -33 -10 -60 -10 -29 0 -70 -9 -95 -20 -24
-11 -60 -20 -81 -20 -21 0 -43 -7 -50 -15 -16 -20 -30 -19 -45 2 -13 17 -14
17 -32 0 -11 -9 -31 -17 -46 -17 -14 0 -29 -5 -33 -11 -4 -7 -26 -8 -64 -4
-47 5 -58 4 -63 -9 -4 -9 -18 -16 -35 -16 -15 0 -45 -9 -67 -20 -22 -11 -53
-20 -71 -20 -17 0 -58 -13 -90 -30 -43 -22 -73 -30 -111 -30 -29 0 -53 -4 -53
-9 0 -19 -57 -37 -108 -35 -60 3 -127 -27 -118 -52 3 -9 -10 -24 -35 -41 -34
-22 -43 -24 -65 -14 -17 7 -24 17 -20 26 3 9 0 15 -9 15 -8 0 -15 -6 -15 -12
-1 -11 -78 -58 -95 -58 -3 0 -9 9 -13 19 -7 18 -9 18 -47 4 -73 -27 -140 -46
-170 -47 -16 -1 -40 -7 -51 -13 -12 -7 -24 -10 -27 -7 -2 3 -22 -4 -43 -15
-21 -12 -48 -21 -60 -21 -12 0 -35 -7 -50 -15 -16 -8 -38 -15 -49 -15 -11 0
-30 -7 -41 -15 -12 -8 -48 -17 -80 -20 -32 -3 -68 -12 -80 -19 -13 -9 -26 -11
-35 -6 -8 6 -22 4 -34 -4 -29 -19 -107 -36 -133 -29 -15 3 -35 -3 -60 -19 -39
-26 -99 -43 -143 -39 -18 2 -29 -5 -39 -23 -10 -20 -21 -26 -47 -26 -50 0
-174 -21 -213 -36 -19 -7 -51 -16 -70 -20 -19 -3 -39 -10 -45 -14 -5 -4 -34
-13 -63 -20 -28 -6 -55 -16 -58 -21 -3 -5 -13 -9 -22 -9 -9 0 -30 -7 -46 -15
-15 -8 -37 -15 -47 -15 -10 0 -21 -5 -24 -10 -3 -5 -18 -10 -33 -10 -15 0 -60
-16 -99 -35 -40 -19 -79 -35 -88 -35 -8 0 -24 -9 -35 -20 -11 -11 -31 -20 -44
-20 -13 0 -26 -7 -30 -15 -7 -20 -56 -19 -70 1 -11 14 -16 14 -54 -6 -23 -12
-42 -28 -42 -36 0 -8 -8 -14 -18 -14 -16 0 -18 -11 -18 -119 1 -103 -2 -122
-18 -140 -22 -24 -15 -48 18 -60 13 -6 28 -23 35 -42 14 -40 14 -40 -1 -36 -8
1 -14 -11 -16 -28 -3 -28 2 -33 43 -54 25 -12 45 -29 45 -36 0 -19 70 -138 87
-148 7 -4 13 -15 13 -22 0 -8 3 -15 8 -15 4 0 43 -32 87 -70 49 -43 92 -72
112 -76 17 -3 34 -12 37 -20 6 -17 151 -20 161 -4 3 5 19 10 34 10 16 0 40 9
54 20 14 11 40 20 61 20 21 0 42 7 53 19 10 10 36 21 58 24 22 4 45 14 51 22
7 9 35 18 65 22 30 3 65 15 79 25 22 16 31 17 58 7 27 -9 37 -8 64 9 40 25
122 54 146 51 37 -3 51 2 57 21 7 24 40 27 49 5 4 -13 10 -14 26 -5 15 8 28 7
54 -5 33 -16 36 -16 78 8 27 16 57 25 80 24 22 0 45 6 56 16 13 12 34 17 65
16 30 -2 53 3 64 13 10 8 26 18 36 21 9 4 17 11 17 16 0 6 24 8 63 5 58 -6 64
-4 86 20 25 27 55 34 66 15 4 -6 28 -9 54 -7 43 3 46 1 44 -19 -2 -13 1 -23 5
-23 15 1 44 29 38 39 -9 13 42 51 68 51 12 0 27 5 34 12 16 16 82 38 117 38
17 0 43 7 59 15 15 8 39 15 52 15 26 0 94 30 94 41 0 4 9 5 20 2 11 -3 32 0
48 6 38 15 215 40 245 34 17 -3 31 2 46 19 20 20 31 23 103 23 l80 0 12 35
c10 31 15 35 46 35 29 0 36 -4 38 -23 3 -20 7 -22 40 -16 50 8 102 24 134 40
14 8 45 14 68 14 58 0 118 18 158 48 25 18 37 21 45 13 16 -16 44 -14 51 4 3
9 18 15 39 15 38 0 53 13 59 49 3 23 9 26 93 38 91 13 121 11 110 -7 -7 -12
76 -12 145 -1 26 4 52 3 62 -3 12 -7 22 -6 36 7 10 9 32 17 49 17 17 0 47 7
68 16 25 10 78 17 162 19 116 3 126 5 178 34 32 18 69 31 90 31 19 0 35 4 35
10 0 6 24 8 60 5 63 -6 87 2 129 39 20 17 23 18 18 3 -10 -27 54 -23 81 6 12
12 30 30 40 40 23 21 54 23 46 2 -4 -9 1 -18 11 -21 25 -10 247 13 255 26 4 6
25 10 46 9 22 -2 46 1 52 5 7 4 20 2 28 -5 12 -10 16 -9 21 9 5 21 11 22 119
22 102 0 116 2 131 20 14 16 30 20 82 20 46 0 70 5 82 16 16 14 23 15 49 4 25
-10 36 -10 55 0 12 7 28 9 34 6 5 -4 17 7 26 24 8 16 19 31 23 31 4 1 18 4 32
6 14 3 61 6 105 8 44 2 87 6 96 10 10 3 20 2 24 -4 6 -11 0 -15 -47 -25 -16
-4 -28 -12 -28 -19 0 -9 18 -11 68 -7 37 3 73 9 80 13 17 11 52 -1 52 -19 0
-23 55 -21 83 4 16 14 20 14 45 -5 20 -15 26 -27 24 -48 -3 -19 0 -26 9 -23 8
3 15 20 16 38 3 33 16 50 41 50 7 0 12 -15 12 -40 0 -22 -4 -40 -10 -40 -11 0
-38 -48 -57 -100 -11 -30 -10 -37 4 -47 17 -13 12 -24 -30 -67 -16 -16 -18
-27 -12 -65 12 -80 12 -86 -10 -84 -25 2 -69 -82 -71 -135 -1 -20 -6 -38 -13
-40 -6 -2 -11 -21 -11 -42 0 -20 -7 -55 -16 -75 -9 -21 -14 -49 -11 -63 3 -14
-4 -39 -15 -58 -11 -19 -22 -56 -24 -82 -3 -26 -12 -83 -20 -127 -8 -44 -18
-114 -21 -155 -3 -45 -11 -79 -19 -85 -10 -7 -14 -47 -16 -147 -2 -88 -7 -139
-14 -142 -6 -2 -14 -40 -17 -83 -3 -43 -12 -93 -20 -111 -9 -22 -11 -48 -5
-89 4 -32 10 -81 14 -109 4 -30 2 -54 -3 -57 -16 -10 -53 31 -53 58 0 34 -17
31 -25 -4 -10 -45 26 -137 74 -187 22 -24 41 -53 41 -64 0 -11 11 -27 25 -36
24 -16 25 -18 9 -36 -17 -18 -16 -20 24 -58 22 -22 54 -59 71 -83 24 -35 38
-46 68 -51 53 -9 85 -38 78 -69 -5 -17 -2 -26 10 -31 25 -9 37 2 25 25 -11 20
-6 39 11 39 18 0 48 -44 39 -55 -10 -12 20 -84 43 -103 9 -8 43 -13 86 -14 50
0 71 -4 75 -14 3 -8 12 -14 19 -14 8 0 20 -7 28 -16 9 -11 22 -14 41 -10 15 3
40 1 56 -5 15 -6 54 -13 87 -15 33 -2 78 -8 100 -14 39 -9 170 -23 210 -22 77
2 219 13 227 18 12 8 34 10 164 18 59 4 106 12 135 26 24 11 54 20 66 20 28 0
99 37 116 59 20 28 106 81 121 75 18 -7 84 36 90 59 2 9 13 17 25 17 36 0 95
48 107 88 7 25 17 37 30 38 10 1 25 2 32 3 6 1 12 10 12 21 0 12 13 28 31 39
28 17 58 59 75 104 3 9 12 17 20 17 19 0 75 115 62 128 -17 17 22 61 55 62 26
0 28 2 21 35 -4 23 -2 35 5 35 6 0 11 6 11 14 0 7 9 34 21 60 14 33 30 52 55
63 18 9 37 26 40 37 4 12 20 35 36 51 32 32 58 85 58 117 0 23 102 128 124
128 8 0 12 7 10 18 -3 9 6 47 20 84 13 38 22 77 19 89 -4 12 3 32 16 49 11 16
21 34 21 40 0 5 8 18 18 28 37 37 63 90 56 115 -7 29 20 93 43 101 9 4 24 0
33 -9 41 -37 70 27 70 157 0 82 1 84 35 117 21 20 35 44 35 57 0 15 6 24 15
24 9 0 20 12 26 28 6 15 17 38 24 52 7 14 13 39 13 57 0 17 9 46 18 65 10 18
19 50 20 71 3 46 19 67 51 67 22 0 24 3 18 30 -5 22 -3 32 9 36 9 3 16 12 16
19 0 7 6 18 14 25 8 6 12 18 9 26 -3 8 -1 14 5 14 6 0 12 -5 14 -12 2 -6 9 -8
15 -5 8 5 8 15 0 38 -10 25 -9 35 6 60 9 17 17 43 17 59 0 20 6 31 20 35 11 3
20 15 20 25 0 10 5 22 11 26 6 4 9 19 5 36 -3 16 -1 37 4 46 5 9 18 39 28 66
l19 48 129 4 c71 2 151 7 179 13 58 11 75 2 75 -40 0 -35 13 -37 47 -5 20 18
37 24 74 24 27 1 51 -3 54 -8 7 -12 286 -6 310 7 14 7 36 8 70 1 107 -20 164
-25 260 -23 72 2 105 -1 121 -11 17 -12 27 -12 50 -3 16 6 73 11 127 11 86 0
99 3 108 20 8 15 13 17 25 7 8 -6 14 -22 14 -35 0 -29 40 -35 40 -6 1 31 52
79 92 86 56 10 80 -6 72 -50 -5 -30 -4 -34 14 -34 21 0 32 18 32 51 0 23 23
25 40 4 8 -10 18 -12 29 -6 31 16 79 20 89 8 6 -7 12 -27 14 -46 3 -30 8 -36
43 -49 60 -22 167 -18 209 6 42 25 76 19 76 -13 0 -30 8 -31 115 -29 50 2 116
3 147 3 54 1 57 2 63 29 5 25 10 29 40 28 19 -1 44 -11 57 -22 30 -27 67 -50
96 -59 18 -5 22 -2 22 15 0 17 5 21 28 18 19 -2 26 -8 24 -20 -2 -11 3 -18 12
-18 8 0 16 -6 19 -12 4 -10 7 -10 18 0 20 18 44 15 85 -13 21 -14 42 -24 48
-22 6 2 11 25 11 50 1 56 9 66 35 42 26 -24 50 -13 50 23 0 39 19 54 60 46 21
-5 38 -17 49 -35 10 -19 24 -29 39 -29 12 0 25 -7 28 -15 3 -8 21 -23 40 -34
l34 -20 16 24 c11 17 26 25 44 25 47 0 60 -10 60 -45 0 -32 20 -61 33 -48 4 3
7 17 7 30 0 26 12 30 30 8 16 -20 50 -19 50 0 0 12 4 13 19 5 11 -5 35 -10 54
-10 21 0 41 -7 52 -20 10 -11 26 -20 37 -20 10 0 18 -4 18 -10 0 -5 10 -10 23
-10 12 0 38 -13 57 -30 19 -16 41 -29 47 -30 7 0 15 -11 19 -24 5 -21 13 -25
67 -30 166 -19 168 -19 188 0 22 20 25 52 5 60 -10 4 -12 16 -9 43 4 26 0 41
-11 50 -9 8 -16 28 -16 48 0 31 2 34 28 31 24 -3 27 1 30 29 2 18 -4 42 -12
55 -8 13 -15 41 -15 63 0 22 0 54 0 70 -1 65 -8 101 -25 127 -12 19 -15 32 -8
45 14 28 0 67 -28 73 -28 6 -60 60 -60 101 0 14 -7 34 -15 45 -8 10 -15 26
-15 35 0 9 -17 27 -37 40 -28 17 -39 32 -41 54 -2 17 -8 34 -13 40 -5 5 -9 17
-9 27 0 9 -9 22 -20 28 -16 9 -22 6 -36 -15 -10 -15 -26 -25 -40 -25 -20 0
-24 5 -24 29 0 42 -21 54 -79 46 -31 -4 -51 -3 -56 4 -11 18 -42 12 -48 -9 -7
-26 -52 -43 -78 -29 -11 5 -48 9 -82 8 -34 -1 -89 6 -122 15 -70 19 -96 20
-92 5 1 -6 -4 -14 -10 -16 -8 -3 -13 4 -13 16 0 14 -6 21 -18 21 -10 0 -22 4
-28 9 -5 5 -43 10 -84 11 -41 2 -100 6 -131 11 -30 5 -89 11 -130 14 -42 2
-89 9 -105 16 -16 6 -58 11 -93 10 -35 -1 -69 3 -75 8 -19 15 -69 19 -87 8
-14 -9 -22 -7 -38 7 -15 14 -40 20 -88 22 -213 10 -249 20 -237 69 4 18 1 23
-20 27 -32 6 -43 -7 -19 -21 16 -9 15 -11 -10 -20 -35 -13 -240 -4 -313 14
-42 10 -54 10 -69 -1 -26 -20 -53 -18 -51 3 1 16 -12 18 -119 21 -66 2 -149 6
-185 8 -89 6 -207 12 -390 19 -85 4 -177 8 -205 10 -27 1 -127 4 -220 5 -94 0
-176 5 -183 9 -10 6 -10 21 0 77 6 38 11 104 9 147 l-2 78 26 -7 c22 -5 26 -3
24 12 -4 35 13 75 37 84 18 7 24 17 24 39 0 20 8 35 22 46 14 9 27 34 34 63 7
26 23 76 36 112 14 37 25 91 26 125 2 39 9 69 20 85 30 41 33 60 15 90 -19 33
-10 51 39 76 16 8 28 23 28 34 0 10 4 21 9 24 5 3 7 15 4 26 -4 15 0 20 15 20
15 0 21 8 24 38 3 23 0 40 -7 44 -8 5 -13 37 -13 94 -1 77 1 87 19 91 10 3 19
13 19 23 0 10 7 23 15 30 8 7 15 23 15 36 0 38 18 74 51 102 32 26 72 99 63
114 -2 4 0 27 7 51 9 37 14 44 30 40 23 -6 37 23 20 40 -10 9 -15 8 -25 -5
-20 -27 -28 -22 -24 14 3 30 37 64 81 81 7 3 1 14 -17 29 l-29 25 18 49 c10
27 31 61 48 75 27 23 67 105 67 137 0 8 9 25 20 39 24 30 27 88 5 97 -17 6
-20 51 -5 61 6 3 10 21 10 38 0 43 15 66 31 50 19 -19 49 3 49 34 0 15 -7 35
-17 45 -13 15 -14 23 -5 44 7 13 12 42 12 64 0 44 13 58 36 39 13 -10 17 -10
25 2 15 24 11 62 -6 55 -12 -4 -15 3 -15 29 0 28 8 40 45 71 44 35 45 38 45
92 0 38 5 61 17 74 12 13 18 37 18 77 1 37 7 68 18 84 9 15 17 40 17 57 0 17
4 38 10 48 8 15 21 76 37 172 3 19 16 48 29 63 13 16 25 38 26 50 7 103 22
181 40 209 15 23 23 66 34 197 3 36 13 75 21 87 10 16 13 35 8 67 -5 29 -3 47
4 52 26 16 60 118 67 205 3 35 9 69 13 75 5 5 11 48 15 95 5 60 11 89 22 97
21 15 45 61 49 93 8 61 16 88 35 125 11 21 20 55 20 74 0 23 8 43 24 60 18 19
28 45 36 96 6 39 17 84 24 100 47 103 56 128 56 153 0 15 13 47 30 72 16 24
32 64 36 88 5 33 12 46 30 52 28 11 28 7 10 57 -9 25 -11 45 -5 54 15 24 10
39 -15 49 -13 5 -46 30 -72 55 -44 43 -51 47 -86 42 -21 -3 -38 -1 -38 4 0 5
5 9 10 9 6 0 1 9 -10 20 -12 12 -34 20 -52 20 -32 1 -80 37 -89 69 -6 16 -74
44 -109 43 -14 0 -37 -3 -51 -7 -27 -7 -86 13 -119 41 -8 6 -34 15 -57 19 -35
5 -43 4 -43 -9z m-8020 -1030 c0 -3 -4 -8 -10 -11 -5 -3 -10 -1 -10 4 0 6 5
11 10 11 6 0 10 -2 10 -4z m270 -56 c0 -5 -4 -10 -9 -10 -6 0 -13 5 -16 10 -3
6 1 10 9 10 9 0 16 -4 16 -10z m6501 -453 c-13 -13 -26 -3 -16 12 3 6 11 8 17
5 6 -4 6 -10 -1 -17z m-2811 -2 c8 -10 28 -14 63 -12 45 2 53 -1 62 -20 11
-26 37 -30 55 -8 17 20 33 19 72 -5 18 -11 47 -20 63 -20 50 0 60 -12 45 -52
-7 -18 -19 -40 -27 -49 -7 -8 -13 -21 -13 -27 0 -16 -37 -35 -42 -21 -4 11
-58 -66 -58 -82 0 -5 -12 -16 -26 -26 -24 -15 -63 -67 -89 -114 -5 -11 -15
-19 -22 -19 -7 0 -19 -13 -27 -29 -9 -16 -24 -31 -36 -34 -12 -3 -20 -13 -20
-26 0 -12 -24 -45 -57 -78 -32 -32 -65 -76 -74 -98 -12 -29 -25 -43 -47 -50
-18 -6 -46 -30 -64 -53 -18 -23 -40 -45 -50 -48 -10 -3 -18 -13 -18 -23 0 -10
-9 -26 -20 -36 -11 -10 -20 -23 -20 -30 0 -6 -18 -29 -40 -50 -22 -21 -40 -43
-40 -49 0 -18 -110 -115 -124 -110 -16 6 -56 -41 -56 -67 0 -11 -4 -19 -9 -19
-4 0 -24 -25 -43 -55 -20 -31 -60 -81 -89 -112 -30 -31 -61 -73 -71 -95 -9
-21 -27 -42 -40 -48 -13 -5 -36 -23 -52 -40 -16 -16 -33 -30 -36 -30 -4 0 -13
-20 -19 -45 -8 -32 -19 -49 -39 -59 -36 -19 -82 -70 -116 -129 -16 -26 -44
-59 -62 -74 -19 -14 -34 -34 -34 -44 0 -9 -8 -20 -17 -24 -10 -3 -33 -27 -51
-54 -18 -27 -57 -74 -85 -104 -87 -91 -220 -239 -250 -276 -64 -82 -96 -118
-163 -185 -39 -39 -81 -87 -93 -106 -12 -19 -34 -45 -49 -57 -79 -65 -125
-110 -138 -135 -8 -15 -20 -28 -27 -28 -6 0 -20 -14 -29 -30 -9 -17 -27 -34
-40 -39 -13 -5 -47 -29 -75 -54 -29 -25 -66 -48 -82 -52 -17 -4 -33 -15 -36
-26 -4 -10 -12 -19 -20 -19 -7 0 -15 -7 -19 -15 -3 -9 -18 -15 -35 -15 -20 0
-30 -6 -34 -20 -6 -24 -55 -28 -63 -5 -4 8 -15 15 -25 15 -23 0 -24 8 -3 31 9
10 18 37 21 61 6 45 44 95 62 83 7 -4 9 9 5 38 -6 39 -4 47 15 56 16 9 21 21
21 54 0 51 17 117 30 117 6 0 10 6 10 14 0 8 8 21 18 28 22 15 39 112 22 123
-15 10 -12 35 5 35 8 0 15 7 15 15 0 9 18 35 41 58 35 36 40 47 35 75 -4 27
-1 34 17 41 24 10 97 93 97 111 0 7 9 23 20 37 11 14 20 34 20 44 0 26 30 72
68 103 17 15 32 34 32 42 0 21 58 127 86 157 13 14 24 30 24 35 0 5 14 28 30
50 17 23 30 45 30 49 0 11 53 87 67 96 7 4 13 13 13 19 0 6 16 30 35 54 19 23
35 47 35 53 0 5 25 37 55 69 30 33 55 67 55 76 0 9 4 16 9 16 5 0 32 32 61 70
33 45 59 70 71 70 13 0 21 9 25 29 4 16 29 51 60 82 30 29 54 58 54 64 0 7 11
22 25 35 14 13 25 30 25 38 0 15 29 45 106 107 56 45 64 54 64 76 0 9 34 52
75 95 41 44 77 87 80 97 4 9 11 17 16 17 5 0 51 43 103 95 51 52 98 95 104 95
5 0 35 24 65 53 84 79 206 174 262 204 28 14 77 42 110 63 33 20 71 43 85 51
14 8 32 19 40 25 33 25 112 31 130 9z m-1710 -55 c0 -5 -5 -10 -11 -10 -5 0
-7 5 -4 10 3 6 8 10 11 10 2 0 4 -4 4 -10z m4470 -9 c-13 -26 -27 -34 -35 -21
-8 14 13 40 32 40 10 0 11 -4 3 -19z m-114 -138 c-10 -10 -19 5 -10 18 6 11 8
11 12 0 2 -7 1 -15 -2 -18z m-96 -92 c0 -24 -18 -37 -32 -23 -8 8 -7 16 2 27
17 21 30 19 30 -4z m-350 -420 c0 -11 -39 -41 -52 -41 -12 0 -9 19 5 35 14 16
47 20 47 6z m1036 -122 c8 -14 -11 -33 -25 -25 -11 7 -4 36 9 36 5 0 12 -5 16
-11z m-9981 -2269 c3 -5 -1 -10 -10 -10 -9 0 -13 5 -10 10 3 6 8 10 10 10 2 0
7 -4 10 -10z m5 -55 c0 -8 -4 -15 -10 -15 -5 0 -10 7 -10 15 0 8 5 15 10 15 6
0 10 -7 10 -15z m9311 -300 c-11 -20 -24 -55 -27 -78 -4 -23 -12 -49 -19 -57
-6 -8 -15 -23 -18 -32 -7 -19 -42 -24 -52 -8 -3 5 1 21 10 34 9 14 14 29 11
35 -3 5 1 12 10 15 9 3 14 12 11 19 -3 8 3 19 13 25 12 7 16 18 13 31 -3 12 6
33 24 55 26 33 29 35 37 17 6 -14 3 -30 -13 -56z m-8371 -55 c0 -5 -4 -10 -10
-10 -5 0 -10 5 -10 10 0 6 5 10 10 10 6 0 10 -4 10 -10z m8279 -178 c7 -14 5
-27 -9 -50 -28 -45 -40 -40 -40 18 0 43 3 50 20 50 10 0 24 -8 29 -18z m-52
-184 c-2 -24 -8 -53 -15 -65 -7 -12 -12 -31 -12 -42 0 -14 -9 -21 -31 -26 -41
-9 -46 -1 -25 43 20 42 76 132 82 132 2 0 3 -19 1 -42z m-1687 -308 c0 -5 -4
-10 -10 -10 -5 0 -10 5 -10 10 0 6 5 10 10 10 6 0 10 -4 10 -10z m-437 -412
c4 -12 4 -25 1 -28 -8 -7 -34 31 -28 41 9 16 22 10 27 -13z m6177 -504 c0 -9
-7 -14 -17 -12 -25 5 -28 28 -4 28 12 0 21 -6 21 -16z m130 -314 c0 -5 -4 -10
-10 -10 -5 0 -10 5 -10 10 0 6 5 10 10 10 6 0 10 -4 10 -10z m-5059 -104 c-6
-7 -10 -32 -9 -57 1 -24 -2 -55 -7 -68 -7 -22 -6 -23 19 -17 20 5 28 2 32 -11
3 -10 9 -25 13 -33 4 -8 2 -36 -4 -61 -8 -27 -9 -52 -4 -60 7 -11 9 -9 9 6 0
11 7 31 16 43 8 12 14 30 13 40 -4 21 49 102 67 102 19 0 27 -36 19 -85 -5
-36 -11 -46 -36 -57 -26 -11 -30 -17 -25 -41 7 -35 -23 -147 -41 -154 -7 -3
-13 -10 -13 -17 -1 -13 -22 -38 -68 -80 -27 -26 -32 -27 -38 -12 -4 10 0 22
10 29 11 8 15 19 10 30 -8 22 -25 22 -31 -1 -2 -10 -18 -24 -35 -31 -27 -12
-30 -17 -25 -47 3 -19 1 -34 -4 -34 -5 0 -7 -11 -3 -24 4 -18 1 -25 -13 -28
-13 -2 -18 -13 -20 -43 -3 -78 -13 -105 -39 -105 -15 0 -30 -10 -40 -27 -9
-16 -25 -40 -35 -55 -11 -15 -19 -40 -19 -56 0 -16 -9 -37 -20 -47 -11 -10
-20 -26 -20 -36 0 -13 -9 -19 -32 -21 -30 -3 -33 -6 -35 -38 -1 -19 3 -38 9
-41 17 -11 1 -53 -24 -64 -16 -7 -25 -21 -29 -46 -3 -20 -15 -50 -27 -66 -12
-17 -22 -35 -22 -40 0 -23 -27 -63 -45 -65 -16 -2 -19 -10 -17 -37 1 -18 -2
-39 -7 -45 -5 -6 -9 -23 -9 -39 0 -22 4 -26 18 -22 20 6 34 -18 25 -46 -7 -20
-39 -34 -55 -24 -6 4 -8 16 -5 26 4 11 1 27 -5 35 -11 12 -15 9 -31 -21 -23
-42 -24 -55 -4 -55 8 0 15 -7 15 -15 0 -9 7 -18 15 -21 22 -9 19 -37 -2 -30
-60 16 -83 17 -83 3 0 -9 -8 -29 -17 -45 -17 -29 -17 -31 2 -52 18 -20 18 -21
-3 -36 -12 -8 -22 -22 -22 -30 0 -10 -7 -13 -25 -8 -27 7 -35 -12 -14 -33 8
-8 8 -13 0 -17 -6 -4 -11 -2 -11 3 0 26 -27 7 -50 -33 -13 -25 -27 -43 -31
-40 -4 2 -14 -3 -21 -12 -7 -9 -22 -26 -34 -37 -11 -12 -23 -30 -27 -39 -3
-10 -16 -18 -27 -18 -11 0 -20 -6 -20 -13 0 -8 -7 -28 -16 -45 -11 -23 -22
-32 -40 -32 -19 0 -24 -5 -24 -24 0 -43 -114 -156 -157 -156 -7 0 -13 -9 -13
-20 0 -27 -27 -80 -41 -80 -6 0 -22 -9 -36 -20 -20 -16 -29 -18 -40 -8 -9 7
-13 8 -11 1 6 -21 -72 -92 -113 -105 -22 -6 -45 -20 -50 -30 -5 -10 -14 -18
-20 -18 -6 0 -25 -6 -42 -14 -18 -8 -56 -17 -85 -20 -44 -4 -54 -2 -58 12 -17
52 -28 72 -38 72 -31 0 -49 29 -58 90 -4 35 -13 69 -18 76 -6 6 -12 43 -14 82
-2 38 -7 75 -10 81 -4 6 -5 78 -1 159 10 239 13 280 25 302 6 12 14 81 17 153
2 72 9 139 14 149 5 10 14 46 19 81 23 154 32 202 39 207 12 7 23 58 25 117 2
28 12 71 23 95 65 133 77 164 79 200 1 22 7 45 13 51 6 6 11 18 11 28 0 9 8
27 19 40 10 13 22 38 25 56 4 18 17 44 28 58 11 15 18 34 15 45 -3 12 1 24 11
29 9 5 17 22 18 37 4 50 31 138 43 142 6 2 11 9 11 16 0 7 13 25 29 40 18 17
31 41 33 60 2 26 7 31 28 31 20 0 25 -5 25 -25 0 -20 6 -26 29 -28 30 -4 49
13 41 36 -3 7 0 22 6 34 10 18 12 18 28 4 10 -9 23 -16 29 -16 7 0 12 -8 12
-19 0 -26 22 -42 40 -31 25 16 107 12 125 -6 33 -33 87 5 65 46 -17 32 -11 40
30 40 28 0 40 -4 40 -14 0 -19 13 -26 59 -37 48 -11 81 -2 81 22 0 26 26 35
57 18 13 -7 20 -15 14 -17 -6 -2 -11 -8 -11 -13 0 -13 54 -11 68 3 9 9 13 8
17 -4 5 -13 12 -12 48 6 29 14 63 21 117 22 99 1 95 0 108 29 13 28 39 33 48
10 4 -8 10 -15 15 -15 5 0 9 7 9 15 0 8 6 15 14 15 7 0 19 -7 26 -15 16 -19
40 -20 40 -1 0 8 14 19 31 25 40 14 39 14 39 -5 0 -9 6 -14 12 -12 8 3 11 19
10 44 -3 31 2 44 20 60 25 24 49 34 61 27 4 -3 3 -10 -2 -17z m4977 -77 c2
-23 2 -23 -13 -5 -18 24 -20 39 -2 34 6 -3 13 -15 15 -29z m-6048 -4 c14 -17
5 -35 -19 -35 -22 0 -45 25 -36 40 9 15 41 12 55 -5z m-1666 -196 c-3 -5 -10
-7 -15 -3 -5 3 -7 10 -3 15 3 5 10 7 15 3 5 -3 7 -10 3 -15z m7950 -50 c26
-43 10 -50 -25 -10 -34 40 -35 41 -11 41 10 0 26 -14 36 -31z m-7544 -665 c0
-8 -4 -12 -10 -9 -5 3 -10 13 -10 21 0 8 5 12 10 9 6 -3 10 -13 10 -21z m-40
-20 c0 -8 -4 -12 -10 -9 -5 3 -10 10 -10 16 0 5 5 9 10 9 6 0 10 -7 10 -16z"/>
<path d="M10613 3106 c-17 -8 -23 -19 -23 -46 0 -31 2 -33 15 -19 12 11 41 84
32 78 -1 -1 -12 -6 -24 -13z"/>
<path d="M10557 3023 c-4 -3 -7 -10 -7 -14 0 -11 29 -19 35 -10 6 11 -20 33
-28 24z"/>
<path d="M10225 2469 c-10 -15 3 -25 16 -12 7 7 7 13 1 17 -6 3 -14 1 -17 -5z"/>
<path d="M10197 2444 c-4 -4 -7 -14 -7 -23 0 -11 3 -12 11 -4 6 6 10 16 7 23
-2 6 -7 8 -11 4z"/>
<path d="M16260 9772 c0 -27 -2 -29 -45 -29 -28 0 -52 -6 -63 -16 -10 -9 -24
-17 -30 -17 -7 0 -35 -23 -63 -51 -35 -35 -57 -49 -72 -47 -12 1 -33 -5 -47
-15 -13 -9 -31 -17 -40 -17 -32 0 -106 -33 -135 -59 -16 -15 -43 -34 -59 -41
-16 -8 -43 -32 -59 -52 -17 -21 -39 -38 -49 -38 -10 0 -30 -12 -44 -27 -13
-14 -34 -31 -47 -37 -12 -7 -23 -22 -25 -34 -2 -16 -10 -22 -27 -22 -13 0 -25
3 -28 8 -2 4 -2 1 0 -6 5 -22 -7 -34 -23 -21 -11 9 -16 6 -24 -16 -16 -42 -67
-102 -92 -109 -13 -3 -34 -21 -47 -41 -13 -19 -30 -34 -39 -33 -8 2 -19 -6
-26 -17 -26 -47 -58 -85 -71 -85 -17 0 -75 -33 -75 -42 0 -5 -5 -8 -11 -8 -14
0 -170 -160 -165 -169 2 -3 -19 -26 -46 -51 -28 -25 -62 -58 -77 -75 -31 -34
-50 -54 -119 -118 -29 -26 -52 -50 -52 -53 0 -9 -68 -71 -168 -153 -22 -18
-38 -39 -36 -46 3 -7 -3 -15 -13 -17 -10 -3 -27 -24 -38 -46 -11 -23 -25 -42
-32 -42 -6 0 -20 -11 -31 -25 -11 -14 -27 -25 -36 -25 -9 0 -29 -30 -53 -80
-32 -67 -44 -82 -70 -92 -20 -7 -33 -19 -33 -30 0 -10 -11 -25 -25 -34 -14 -9
-25 -22 -25 -29 0 -8 -9 -16 -20 -20 -20 -6 -80 -72 -80 -88 0 -9 -59 -82
-107 -135 -13 -14 -23 -29 -23 -33 0 -5 -17 -28 -37 -50 -29 -32 -38 -50 -38
-78 0 -35 -1 -36 -32 -33 -24 2 -33 -1 -33 -11 0 -8 -7 -20 -15 -27 -8 -7 -15
-19 -15 -27 0 -7 -4 -19 -10 -26 -5 -7 -22 -28 -38 -47 -16 -19 -32 -47 -35
-61 -4 -14 -20 -41 -37 -60 -17 -19 -38 -44 -47 -56 -8 -13 -21 -23 -28 -23
-14 0 -45 -33 -49 -52 -11 -53 -25 -80 -68 -129 -26 -31 -48 -65 -48 -74 0
-10 -18 -35 -39 -56 -38 -37 -45 -69 -20 -85 33 -20 -26 -90 -67 -80 -18 5
-26 2 -30 -11 -3 -10 -10 -26 -15 -36 -5 -10 -7 -22 -4 -27 11 -18 -39 -110
-62 -116 -12 -3 -24 -17 -28 -31 -3 -13 -17 -42 -30 -64 -19 -29 -24 -50 -22
-86 2 -47 1 -48 -40 -67 -40 -19 -42 -23 -59 -93 -14 -59 -14 -75 -4 -88 8
-10 9 -19 2 -27 -5 -7 -13 -28 -17 -45 -7 -36 -20 -41 -46 -17 -16 14 -18 14
-29 -6 -13 -25 -5 -39 12 -22 32 32 33 -17 2 -76 -8 -15 -14 -34 -14 -43 0
-22 -26 -44 -35 -29 -3 5 -4 14 0 19 3 5 1 12 -4 16 -19 11 -33 -34 -23 -79 7
-33 6 -47 -5 -62 -22 -29 -11 -163 23 -272 4 -14 12 -21 21 -18 21 9 27 -21 9
-49 -21 -32 -21 -32 14 -50 17 -9 30 -21 30 -28 0 -8 17 -23 38 -35 45 -25 69
-50 74 -77 2 -13 12 -21 30 -23 15 -2 34 -14 42 -28 9 -13 21 -24 26 -24 5 0
29 -14 54 -30 24 -17 50 -28 58 -25 7 3 29 -6 48 -20 20 -15 47 -25 67 -25 26
0 34 -5 39 -24 4 -19 14 -25 47 -29 23 -3 43 -11 45 -16 2 -7 37 -11 87 -11
54 0 86 -4 93 -12 10 -13 130 -14 242 -3 25 3 77 6 115 7 55 2 85 10 140 37
39 18 78 40 87 48 10 9 25 12 37 8 15 -5 21 -2 21 9 0 10 9 16 24 16 14 0 40
15 62 35 43 41 51 43 56 13 4 -27 23 -34 32 -12 4 10 -1 22 -11 30 -16 12 -15
13 11 14 21 0 40 11 66 40 24 26 46 40 62 40 34 0 56 20 60 55 2 18 11 34 24
40 12 6 30 17 39 25 15 12 19 11 36 -10 15 -20 21 -23 36 -14 10 6 19 22 21
35 4 34 23 69 37 69 7 0 24 9 38 20 14 11 36 20 49 20 43 1 102 44 128 93 17
32 33 50 50 53 49 11 79 29 84 48 5 19 6 19 25 2 15 -14 21 -15 27 -4 5 7 9
18 9 23 2 26 19 45 40 45 13 0 25 7 29 15 3 8 11 12 18 10 17 -7 52 36 86 105
22 43 33 56 53 58 20 2 28 -2 32 -18 8 -31 24 -17 31 27 4 21 15 53 24 71 14
28 21 32 42 28 14 -3 40 -8 58 -12 42 -8 62 -38 62 -93 0 -26 6 -51 16 -62 13
-14 13 -21 4 -40 -10 -19 -10 -24 4 -34 9 -7 16 -19 16 -26 0 -8 7 -25 16 -37
9 -14 14 -34 11 -50 -4 -19 2 -35 19 -55 13 -16 24 -35 24 -42 0 -8 9 -30 21
-49 11 -19 18 -39 15 -44 -6 -11 244 -270 286 -297 16 -9 34 -15 42 -12 8 3
20 -1 26 -9 7 -8 21 -14 31 -14 10 0 21 -4 24 -10 3 -6 17 -10 30 -10 13 0 37
-11 53 -25 17 -14 38 -25 48 -25 11 0 30 -9 44 -20 14 -11 31 -20 39 -20 13 0
76 -27 134 -57 27 -14 52 -14 88 1 11 5 18 1 22 -13 6 -24 37 -29 37 -7 0 23
101 16 121 -8 15 -18 20 -18 63 -6 38 10 51 11 71 0 19 -10 36 -10 87 0 35 6
68 16 75 22 7 5 25 7 42 3 17 -4 43 0 66 9 21 9 49 16 62 16 32 0 104 57 101
79 -2 11 3 15 20 13 15 -2 22 2 22 13 0 17 0 17 142 15 58 -1 68 2 78 19 6 12
26 27 45 35 22 9 41 28 53 53 13 24 34 45 56 56 20 9 42 29 49 44 14 32 20 41
63 89 18 21 37 32 45 29 20 -8 41 49 29 80 -13 34 2 120 20 120 8 0 14 -7 13
-15 -5 -26 38 -38 74 -20 29 13 47 50 24 50 -15 0 -19 59 -4 71 7 6 24 8 38 5
20 -5 25 -13 25 -36 0 -34 15 -47 35 -30 19 16 19 39 -1 61 -14 15 -14 23 -4
56 7 21 16 42 21 48 5 5 9 21 9 35 0 28 34 57 46 39 4 -7 17 0 35 17 25 24 28
32 23 66 -7 42 -4 45 30 22 27 -17 28 -16 46 41 13 38 50 93 98 141 12 13 22
32 22 42 0 10 11 24 24 32 31 16 66 96 64 145 -1 27 4 42 18 51 57 39 87 86
77 123 -4 16 3 25 31 42 21 12 36 29 36 40 0 12 7 19 18 19 20 0 52 56 52 90
0 11 6 20 14 20 25 0 66 59 66 95 0 23 10 46 35 75 19 23 35 47 35 54 0 6 9
29 21 50 11 21 18 41 15 43 -3 3 1 14 8 25 8 12 12 35 9 62 -5 42 7 67 39 79
10 4 11 7 1 18 -7 7 -13 21 -13 31 0 22 -13 23 -30 3 -10 -12 -10 -19 -2 -27
22 -22 12 -31 -29 -25 -22 3 -43 8 -47 12 -3 3 12 24 35 46 32 30 48 39 71 37
36 -3 62 17 62 47 0 17 -7 24 -30 29 -27 5 -30 9 -30 43 0 41 -19 69 -63 97
-19 11 -27 24 -25 38 2 16 -7 24 -41 38 -24 9 -49 23 -55 31 -6 8 -32 25 -58
38 -46 24 -46 24 -75 6 -22 -15 -44 -18 -101 -16 -40 1 -83 6 -95 10 -14 5
-35 3 -57 -6 -97 -42 -120 -54 -120 -65 0 -6 -7 -20 -17 -30 -9 -10 -13 -21
-8 -26 4 -4 10 -1 12 6 8 21 23 13 23 -12 0 -13 -7 -27 -16 -30 -22 -8 -21 -9
-27 15 -6 24 -26 21 -41 -6 -6 -10 -17 -25 -24 -34 -49 -61 -62 -81 -62 -98 0
-12 -11 -25 -26 -32 -22 -10 -25 -17 -22 -49 3 -31 0 -37 -17 -37 -27 0 -78
-53 -70 -73 4 -10 -10 -29 -39 -56 -25 -23 -54 -61 -65 -86 -10 -25 -38 -64
-60 -88 -23 -23 -41 -46 -41 -51 0 -5 -7 -14 -15 -21 -9 -7 -20 -32 -26 -56
-6 -24 -15 -44 -19 -44 -4 0 -24 -15 -43 -33 -31 -28 -36 -39 -39 -87 l-3 -55
-40 -6 c-21 -4 -41 -10 -42 -15 -2 -5 -12 -22 -23 -39 -29 -44 -36 -57 -51
-90 -8 -16 -25 -41 -40 -55 -14 -14 -38 -47 -53 -75 -15 -27 -42 -59 -59 -70
-19 -12 -36 -33 -42 -53 -5 -17 -15 -32 -22 -32 -17 0 -17 -37 0 -43 7 -3 4
-7 -8 -11 -45 -16 -85 -40 -85 -52 0 -7 -35 -47 -78 -91 -42 -43 -86 -90 -97
-104 -11 -14 -32 -33 -47 -43 -16 -10 -28 -23 -28 -30 0 -11 -20 -26 -75 -57
-16 -9 -30 -23 -30 -30 0 -8 -7 -14 -17 -14 -18 0 -68 -39 -68 -54 0 -4 -23
-20 -52 -35 -28 -15 -74 -43 -102 -64 -42 -31 -59 -37 -107 -39 -67 -3 -75 4
-82 72 -3 28 -9 67 -13 88 -5 32 -3 41 18 60 27 25 45 101 29 121 -5 6 -6 57
-1 123 6 90 11 117 29 142 12 17 24 39 26 50 2 11 13 41 24 67 12 26 24 66 28
88 3 23 18 55 34 73 18 21 30 48 34 80 3 26 10 55 16 63 21 33 22 45 7 85 -9
23 -13 46 -9 52 3 5 27 18 53 29 46 18 62 44 38 59 -17 11 2 37 24 31 28 -6
56 32 64 87 4 29 18 57 49 94 45 57 50 72 31 91 -9 9 -9 17 0 34 6 13 14 42
17 64 8 52 44 87 80 78 36 -9 56 11 45 42 -6 16 -6 34 1 52 7 15 16 38 21 52
6 14 14 32 19 40 5 8 12 22 15 30 3 8 10 23 15 32 5 10 9 34 9 53 0 19 4 35 9
35 18 0 103 96 157 176 30 45 63 89 73 98 11 10 17 25 14 34 -2 11 12 34 36
61 22 24 41 55 43 69 2 18 10 28 28 32 14 3 31 18 38 33 13 26 32 37 32 17 0
-24 20 -6 41 38 12 26 26 49 29 52 17 12 110 142 110 153 0 21 58 129 84 156
31 33 76 116 76 141 0 28 36 92 70 125 24 23 30 37 30 70 0 22 6 47 12 53 10
10 10 17 0 32 -6 11 -12 26 -12 34 0 20 -39 66 -57 66 -9 0 -22 8 -29 17 -11
16 -17 16 -45 6 -43 -17 -47 -10 -14 21 32 30 28 62 -6 51 -20 -7 -46 1 -126
36 -24 11 -47 19 -53 19 -5 0 -10 7 -10 15 0 8 -22 36 -49 63 -43 43 -50 47
-55 30 -7 -30 -26 -11 -26 26 0 18 -9 45 -20 59 -11 14 -20 32 -20 41 0 19
-29 67 -47 79 -7 4 -15 23 -19 42 -7 37 -50 77 -116 107 -20 9 -44 28 -53 42
-10 14 -33 35 -52 47 -19 12 -47 33 -61 45 -14 13 -30 24 -37 24 -16 0 -73 29
-80 41 -10 15 -75 39 -106 39 -16 0 -38 -5 -48 -12 -10 -6 -27 -8 -37 -4 -11
5 -64 7 -120 6 -81 -1 -103 2 -114 15 -8 9 -20 13 -29 9 -9 -4 -34 -10 -56
-14 -22 -4 -52 -10 -67 -14 -23 -7 -27 -4 -30 16 -4 32 -45 38 -56 8 l-8 -21
-18 20 c-13 14 -31 21 -58 21 -35 0 -38 -2 -38 -28z m733 -556 c31 -29 83 -56
109 -56 10 0 18 -4 18 -9 0 -5 10 -11 23 -13 18 -2 22 -8 19 -37 -3 -47 -45
-134 -87 -179 -19 -22 -35 -46 -35 -54 0 -8 -7 -23 -15 -34 -8 -10 -15 -30
-15 -44 0 -15 -13 -37 -30 -53 -18 -17 -30 -39 -30 -54 0 -16 -7 -27 -19 -30
-10 -2 -30 -28 -44 -57 -14 -28 -35 -60 -47 -71 -12 -11 -33 -44 -48 -74 -14
-31 -27 -50 -29 -44 -6 17 -33 4 -33 -16 0 -9 -9 -25 -21 -34 -16 -14 -18 -21
-9 -31 12 -16 -7 -40 -40 -51 -15 -5 -20 -14 -18 -33 3 -22 -1 -27 -19 -26
-13 0 -23 -5 -23 -13 0 -8 -7 -16 -15 -19 -8 -4 -15 -17 -15 -29 0 -39 -11
-55 -36 -55 -13 0 -24 -4 -24 -8 0 -5 -22 -26 -50 -48 -40 -32 -49 -45 -50
-71 0 -23 -6 -33 -20 -38 -29 -9 -43 -40 -30 -64 10 -19 -3 -41 -16 -28 -3 3
-14 -3 -25 -14 -13 -13 -17 -27 -13 -44 6 -23 3 -25 -26 -25 -34 0 -71 -32
-118 -102 -13 -21 -29 -38 -33 -38 -5 0 -9 -5 -9 -10 0 -6 7 -10 16 -8 10 2
19 -3 21 -10 4 -10 -5 -12 -33 -10 -32 3 -40 -1 -51 -22 -7 -14 -20 -24 -29
-22 -21 4 -44 -16 -44 -39 0 -11 -5 -19 -11 -19 -6 0 -9 -7 -5 -15 8 -22 -49
-119 -72 -123 -10 -2 -25 -13 -31 -26 -18 -34 -62 -56 -83 -43 -19 13 -48 -6
-48 -31 0 -22 -58 -122 -84 -143 -11 -10 -29 -18 -38 -19 -10 0 -24 -12 -32
-27 -8 -16 -36 -50 -61 -76 -39 -40 -52 -48 -72 -42 -22 5 -24 3 -22 -22 4
-38 -8 -58 -27 -42 -18 15 -44 4 -44 -18 0 -25 -36 -54 -56 -46 -18 7 -104
-77 -104 -102 0 -8 -4 -15 -10 -15 -5 0 -10 -5 -10 -10 0 -20 -90 -99 -105
-93 -10 3 -15 -2 -15 -16 0 -16 -6 -21 -27 -21 -33 0 -47 -9 -56 -34 -4 -10
-13 -16 -21 -13 -8 3 -22 -3 -32 -14 -9 -10 -23 -19 -30 -19 -15 0 -39 -39
-30 -48 3 -3 -21 -19 -55 -35 -57 -27 -60 -30 -54 -58 6 -25 4 -29 -14 -29
-19 0 -36 -6 -81 -31 -8 -5 -28 -15 -45 -23 -30 -13 -95 -80 -95 -97 0 -5 -11
-11 -24 -15 -13 -3 -26 -14 -29 -25 -3 -11 -17 -22 -36 -25 -17 -4 -47 -24
-69 -48 -21 -22 -62 -61 -89 -85 -30 -25 -49 -50 -46 -58 3 -7 -1 -14 -8 -14
-8 -1 -18 -2 -24 -4 -5 -1 -15 -3 -22 -3 -6 -1 -35 -21 -65 -44 -81 -65 -148
-108 -167 -108 -18 0 -74 -54 -110 -107 -17 -25 -30 -33 -53 -33 -16 0 -41 -9
-55 -20 -14 -11 -39 -20 -55 -20 -16 0 -44 -11 -61 -24 -33 -24 -104 -51 -172
-66 -30 -6 -44 -5 -54 5 -13 13 -13 17 1 32 8 10 18 30 22 45 3 15 20 43 36
62 24 27 30 43 30 79 0 36 4 49 20 57 14 8 20 21 20 46 0 37 60 141 87 151 15
6 39 55 48 100 4 18 12 36 19 40 18 11 46 72 46 99 0 33 69 163 96 181 13 8
24 22 24 30 0 23 31 63 62 79 32 16 78 105 78 148 0 36 31 90 74 131 20 18 36
41 36 49 0 8 14 29 30 46 17 17 30 34 30 39 0 4 16 25 35 47 19 21 35 44 35
50 0 6 9 19 20 29 11 10 20 24 20 31 0 7 15 25 33 40 17 15 41 42 52 60 23 39
113 134 126 134 5 0 9 7 9 16 0 10 16 36 35 60 19 23 35 46 35 50 0 4 21 30
48 59 26 29 67 80 92 114 24 33 49 61 54 61 17 0 46 33 46 52 0 10 13 26 29
36 36 22 81 75 81 96 0 9 18 27 39 40 22 14 42 33 45 43 3 10 15 25 27 33 40
29 107 99 114 119 3 12 14 21 24 21 9 0 25 15 36 33 19 32 60 76 148 155 26
24 47 47 47 51 0 25 66 86 113 106 53 22 127 82 127 103 0 7 8 12 18 12 11 0
25 14 36 36 17 36 17 37 66 31 47 -6 50 -5 50 16 0 23 61 97 79 97 6 0 11 7
11 15 0 8 10 20 22 26 13 7 31 23 41 36 12 15 29 23 48 23 17 0 32 6 35 15 4
8 13 15 22 15 8 0 31 17 51 38 20 21 50 45 66 54 85 43 115 61 126 74 6 8 18
14 27 14 9 0 25 8 36 19 12 10 48 28 81 41 99 37 145 59 145 70 0 5 12 10 28
10 15 0 41 8 57 18 17 11 48 22 70 26 22 4 44 11 50 14 20 14 91 29 136 31 36
1 52 -4 72 -23z m-963 -1756 c0 -5 -2 -10 -4 -10 -3 0 -8 5 -11 10 -3 6 -1 10
4 10 6 0 11 -4 11 -10z m2897 -255 c2 -6 -10 -19 -27 -28 -29 -18 -30 -17 -30
0 0 35 47 58 57 28z m-887 -175 c0 -5 -4 -10 -10 -10 -5 0 -10 5 -10 10 0 6 5
10 10 10 6 0 10 -4 10 -10z"/>
<path d="M17676 6551 c-4 -7 -5 -15 -2 -18 9 -9 19 4 14 18 -4 11 -6 11 -12 0z"/>
<path d="M10840 6440 c0 -5 7 -10 15 -10 8 0 15 5 15 10 0 6 -7 10 -15 10 -8
0 -15 -4 -15 -10z"/>
<path d="M3150 6230 c0 -5 5 -10 10 -10 6 0 10 5 10 10 0 6 -4 10 -10 10 -5 0
-10 -4 -10 -10z"/>
<path d="M18310 5780 c0 -5 5 -10 11 -10 5 0 7 5 4 10 -3 6 -8 10 -11 10 -2 0
-4 -4 -4 -10z"/>
<path d="M10244 5766 c-15 -12 -17 -17 -6 -28 11 -11 14 -10 22 2 9 14 14 40
7 40 -2 0 -12 -6 -23 -14z"/>
<path d="M18222 5697 c-15 -35 -15 -47 -2 -47 14 0 22 24 18 52 -4 22 -5 22
-16 -5z"/>
<path d="M18190 5609 c0 -5 5 -7 10 -4 6 3 10 8 10 11 0 2 -4 4 -10 4 -5 0
-10 -5 -10 -11z"/>
<path d="M10490 5370 c-6 -12 -29 -25 -56 -31 -57 -15 -115 -89 -69 -89 8 0
15 7 15 15 0 8 15 24 33 34 50 30 107 74 107 83 0 15 -19 8 -30 -12z"/>
<path d="M10110 5105 c-7 -8 -20 -15 -30 -15 -9 0 -25 -9 -35 -20 -10 -11 -23
-20 -30 -20 -6 0 -27 -15 -46 -33 -19 -18 -46 -41 -61 -50 -18 -11 -28 -26
-28 -41 0 -15 -9 -27 -25 -34 -14 -6 -25 -16 -25 -22 0 -15 26 -12 40 5 7 8
20 15 29 15 9 0 34 16 56 35 22 19 45 35 52 35 9 0 10 7 3 26 -14 35 -12 47 4
41 23 -9 91 20 88 37 -2 9 4 16 12 16 19 0 31 19 19 31 -6 6 -15 4 -23 -6z"/>
<path d="M11260 4765 c0 -8 -4 -15 -9 -15 -11 0 -21 -38 -14 -56 3 -8 12 -14
20 -14 12 0 14 8 9 34 -5 25 -3 35 9 40 19 7 20 26 0 26 -8 0 -15 -7 -15 -15z"/>
<path d="M10650 4441 l-35 -7 45 -15 c39 -14 49 -14 79 -2 18 8 32 15 30 17
-10 8 -88 12 -119 7z"/>
<path d="M10870 4440 c0 -5 7 -10 15 -10 8 0 15 5 15 10 0 6 -7 10 -15 10 -8
0 -15 -4 -15 -10z"/>
<path d="M10580 4409 c0 -5 5 -7 10 -4 6 3 10 8 10 11 0 2 -4 4 -10 4 -5 0
-10 -5 -10 -11z"/>
<path d="M10220 4390 c0 -5 9 -10 20 -10 11 0 20 5 20 10 0 6 -9 10 -20 10
-11 0 -20 -4 -20 -10z"/>
<path d="M9155 4290 c4 -6 11 -8 16 -5 14 9 11 15 -7 15 -8 0 -12 -5 -9 -10z"/>
<path d="M14867 4253 c-14 -13 -6 -23 18 -23 16 0 25 6 25 15 0 15 -31 21 -43
8z"/>
<path d="M8402 4231 c-11 -7 -10 -10 3 -15 20 -7 38 1 30 15 -7 11 -16 11 -33
0z"/>
<path d="M6840 4060 c0 -5 7 -10 16 -10 8 0 12 5 9 10 -3 6 -10 10 -16 10 -5
0 -9 -4 -9 -10z"/>
<path d="M6740 4040 c0 -13 40 -13 60 0 11 7 5 10 -22 10 -21 0 -38 -4 -38
-10z"/>
<path d="M6560 4027 c-29 -8 -46 -18 -48 -29 -3 -14 2 -17 25 -15 15 2 38 9
50 15 12 7 29 12 38 12 20 0 14 24 -6 27 -8 1 -34 -4 -59 -10z"/>
<path d="M6135 3963 c-56 -6 -69 -23 -18 -23 46 0 73 8 73 21 0 5 -3 8 -7 7
-5 -1 -26 -3 -48 -5z"/>
<path d="M5913 3925 c-14 -11 -15 -14 -3 -14 8 0 24 4 34 8 17 6 17 8 4 14 -9
3 -24 -1 -35 -8z"/>
<path d="M13590 3367 c0 -18 40 -41 52 -29 6 6 1 15 -13 26 -28 19 -39 20 -39
3z"/>
</g>
</svg>
